<?xml version="1.0" standalone="yes"?>

<svg version="1.1" viewBox="0.0 0.0 843.7611548556431 703.6535433070866" fill="none" stroke="none" stroke-linecap="square" stroke-miterlimit="10" xmlns="http://www.w3.org/2000/svg" xmlns:xlink="http://www.w3.org/1999/xlink"><clipPath id="p.0"><path d="m0 0l843.76117 0l0 703.65356l-843.76117 0l0 -703.65356z" clip-rule="nonzero"></path></clipPath><g clip-path="url(#p.0)"><path fill="#000000" fill-opacity="0.0" d="m0 0l843.76117 0l0 703.65356l-843.76117 0z" fill-rule="nonzero"></path><path fill="#073763" d="m-4.1679792 -3.335958l847.937 0l0 717.8267l-847.937 0z" fill-rule="nonzero"></path><path stroke="#000000" stroke-width="1.0" stroke-linejoin="round" stroke-linecap="butt" d="m-4.1679792 -3.335958l847.937 0l0 717.8267l-847.937 0z" fill-rule="nonzero"></path><path fill="#434343" d="m37.854332 704.19684l18.24147 -43.78479l88.48293 -77.532776l78.4462 -50.170593l61.11548 -44.695557l13.682434 -36.48819l4.561676 59.29135l27.364807 0.9133606l27.364838 12.769012l50.170624 3.6483154l19.154846 9.123352l65.677155 -36.48816l42.87137 -49.257233l10.03418 -23.716522l0 -22.803162l21.892334 47.433075l15.506592 23.716522l71.1496 40.13385l62.02887 28.27826l61.11548 31.926453l31.926514 56.553833l-3.65094 86.65619l-778.99475 -4.559082z" fill-rule="nonzero"></path><path fill="#303030" d="m571.021 461.10498l20.068237 27.364838l-30.559021 63.850372l-48.800568 34.207397l-58.37793 35.118103l-14.595795 -23.716553l15.963226 -0.9107666l85.74277 -59.29132l31.926514 -60.658813l-2.7348633 -24.173218l5.929138 13.225708" fill-rule="nonzero"></path><path fill="#303030" d="m303.29922 448.79004l-5.0183716 4.1049805l-12.314972 34.204712l0.9133911 13.228363l-7.753296 88.480316l10.034119 -10.034119l13.682434 144.58002l12.314941 2.7375488l-14.595795 -150.05511l-4.1049805 -70.6929l-5.015747 -15.963257z" fill-rule="nonzero"></path><path fill="#d9d9d9" d="m295.5433 584.7034l13.685028 149.59576l81.18112 -9.120728l52.908142 -139.56165l-48.346466 -37.398987l-88.480316 10.031494z" fill-rule="nonzero"></path><path fill="#f9d6be" d="m299.1942 463.3832l9.120758 -47.43045l30.102356 8.207336l62.026245 6.3858337l40.136475 -6.3858337l24.629913 -31.013123l51.08136 -51.08136l6.3832397 -29.188965l6.385803 -19.157501l17.330688 118.5827l-0.9107666 72.06299l-75.71124 70.23624l-154.1575 -7.296631l-23.716522 -59.29132z" fill-rule="nonzero"></path><path fill="#434343" d="m529.06036 299.1942l3.6483154 18.241486l8.209961 -10.034119l28.278198 -36.485565l4.5617065 -20.068253l6.3831787 -40.136475l-20.979004 -50.167984l18.24408 10.034119l-18.24408 -17.333328l-4.5616455 -11.858261l-17.33075 -41.04725l-13.682373 -31.013123l-37.398987 -30.102364l-12.771637 -22.803152l-9.120728 -11.858267l-119.49344 0l-53.81891 6.3832016l-34.664032 -5.4724407l-22.803162 0.91338587l-16.419952 25.540684l14.59581 -11.858269l10.034119 0l-10.94751 22.80315l-4.5590515 34.66404" fill-rule="nonzero"></path><path stroke="#000000" stroke-width="1.0" stroke-linejoin="round" stroke-linecap="butt" d="m529.06036 299.1942l3.6483154 18.241486l8.209961 -10.034119l28.278198 -36.485565l4.5617065 -20.068253l6.3831787 -40.136475l-20.979004 -50.167984l18.24408 10.034119l-18.24408 -17.333328l-4.5616455 -11.858261l-17.33075 -41.04725l-13.682373 -31.013123l-37.398987 -30.102364l-12.771637 -22.803152l-9.120728 -11.858267l-119.49344 0l-53.81891 6.3832016l-34.664032 -5.4724407l-22.803162 0.91338587l-16.419952 25.540684l14.59581 -11.858269l10.034119 0l-10.94751 22.80315l-4.5590515 34.66404" fill-rule="nonzero"></path><path fill="#ffffff" d="m280.95013 550.042l5.4724426 -50.170593l69.32544 26.45404l16.419952 -9.123352l25.54068 16.419983l99.4252 -31.926544l43.78479 -56.553802l4.5616455 -38.312317l36.485596 76.62204l-33.748047 68.4147l-97.60367 57.467163l-46.519684 -38.312317l-26.454071 5.472412l-17.330688 -15.506531l-82.09714 30.102356z" fill-rule="nonzero"></path><path fill="#f9d6be" d="m308.31497 422.04486l-27.364838 -13.016876l-9.123352 -30.677643l0.9133606 -30.680328l8.209991 -9.295868l-10.94751 -30.680328l-16.417328 -34.39865l-4.561676 -60.42975l0 -74.37485l22.803162 -62.288902l64.76639 -26.031063l74.79791 0l62.026245 1.859169l35.5748 58.57056l20.068237 38.117012l5.472473 64.14807l25.543274 -23.243637l14.593201 24.17189l-10.944885 64.15076l-17.333374 25.100128l-19.154846 0.9309387l-12.769043 55.780457l-69.32544 71.58475l-51.99475 6.5084534z" fill-rule="nonzero"></path><path fill="#c3a794" d="m310.5958 422.33597l57.010498 -1.3674622l39.223114 -5.4724426l38.312317 -14.139099l25.083984 -23.716553l46.97638 -70.6929l12.315002 -2.2808533l-51.08139 75.25461l-16.876648 28.73227l-10.48819 42.8714l-7.7532654 31.472443l0 37.398926l-42.874023 15.049866l-27.364838 -17.787354l-20.522308 10.490784l-55.643036 -23.716522l-5.929138 -15.05249l8.209961 -24.627289z" fill-rule="nonzero"></path><path stroke="#c3a794" stroke-width="1.0" stroke-linejoin="round" stroke-linecap="butt" d="m310.5958 422.33597l57.010498 -1.3674622l39.223114 -5.4724426l38.312317 -14.139099l25.083984 -23.716553l46.97638 -70.6929l12.315002 -2.2808533l-51.08139 75.25461l-16.876648 28.73227l-10.48819 42.8714l-7.7532654 31.472443l0 37.398926l-42.874023 15.049866l-27.364838 -17.787354l-20.522308 10.490784l-55.643036 -23.716522l-5.929138 -15.05249l8.209961 -24.627289z" fill-rule="nonzero"></path><path fill="#000000" fill-opacity="0.0" d="m559.1627 225.30708l0 -15.506561l-9.120728 7.296585l-6.385803 20.068253l-10.034119 27.364822l5.472412 10.94751l-0.9107666 -9.123352l11.858276 -38.309723" fill-rule="nonzero"></path><path stroke="#c3a794" stroke-width="3.0" stroke-linejoin="round" stroke-linecap="butt" d="m559.1627 225.30708l0 -15.506561l-9.120728 7.296585l-6.385803 20.068253l-10.034119 27.364822l5.472412 10.94751l-0.9107666 -9.123352l11.858276 -38.309723" fill-rule="nonzero"></path><path fill="#f9d6be" d="m272.28348 354.38058l-5.929138 -49.71393l-11.858276 -30.102356l4.561676 -22.349075l52.448822 75.25459l-36.02887 37.398956z" fill-rule="nonzero"></path><path fill="#434343" d="m460.1916 267.26773l-1.3674316 36.031494l-1.3700867 25.083984l4.561676 25.997375l4.1049805 24.170593l-10.944885 14.595795l-12.314941 10.490814l-47.88977 14.13913l-32.83728 4.1049805l-44.241455 1.3674316l-17.330719 -5.9291077l-18.24408 -7.753296l-5.929138 -10.490814l-2.2808533 -5.929138l-2.2808228 -15.963257l4.561676 -8.664032l11.401581 -5.475067l10.034119 16.876648l26.454071 4.5590515l20.524933 -0.9107666l46.519684 -0.45669556l31.926483 -11.401581l13.682434 -15.049866l11.858276 -29.64566l7.7532654 -48.80316z" fill-rule="nonzero"></path><path fill="#434343" d="m270.91602 376.27298l0.9107666 -31.469818l-5.4724426 -39.22574l-8.209991 -25.083984l3.65094 4.561676l8.664032 19.154846l5.929138 24.629944l7.7532654 27.821503l5.929138 13.225739l-0.9107666 11.401581z" fill-rule="nonzero"></path><path stroke="#434343" stroke-width="1.0" stroke-linejoin="round" stroke-linecap="butt" d="m270.91602 376.27298l0.9107666 -31.469818l-5.4724426 -39.22574l-8.209991 -25.083984l3.65094 4.561676l8.664032 19.154846l5.929138 24.629944l7.7532654 27.821503l5.929138 13.225739l-0.9107666 11.401581z" fill-rule="nonzero"></path><path fill="#434343" d="m258.24844 180.61154l-3.3349152 -7.755905l-0.4174652 -15.049866l5.4198303 -15.963257l6.6698 -5.4724426l12.507111 -4.561676l25.43164 8.209976l16.67694 10.94751l1.2499695 9.577423l-12.50708 -9.577423l-19.59439 0l-21.26181 0l-5.0047607 6.8398895l-3.7499695 6.8425293z" fill-rule="nonzero"></path><path stroke="#434343" stroke-width="1.0" stroke-linejoin="round" stroke-linecap="butt" d="m258.24844 180.61154l-3.3349152 -7.755905l-0.4174652 -15.049866l5.4198303 -15.963257l6.6698 -5.4724426l12.507111 -4.561676l25.43164 8.209976l16.67694 10.94751l1.2499695 9.577423l-12.50708 -9.577423l-19.59439 0l-21.26181 0l-5.0047607 6.8398895l-3.7499695 6.8425293z" fill-rule="nonzero"></path><path fill="#434343" d="m367.6063 155.07086l0 -7.755905l7.2140503 -10.944885l12.506897 -9.120728l11.546356 -6.385826l11.06189 -4.5616837l13.951935 2.2808456l19.720947 5.472435l6.2534485 9.577438l5.7717896 9.580048l0 5.015747l-12.506897 -11.858276l-9.619659 -7.7532806l-10.582977 -3.191597l-14.430847 3.191597l-12.025238 5.0157623l-13.470276 4.561676l-10.582977 9.120728z" fill-rule="nonzero"></path><path stroke="#434343" stroke-width="1.0" stroke-linejoin="round" stroke-linecap="butt" d="m367.6063 155.07086l0 -7.755905l7.2140503 -10.944885l12.506897 -9.120728l11.546356 -6.385826l11.06189 -4.5616837l13.951935 2.2808456l19.720947 5.472435l6.2534485 9.577438l5.7717896 9.580048l0 5.015747l-12.506897 -11.858276l-9.619659 -7.7532806l-10.582977 -3.191597l-14.430847 3.191597l-12.025238 5.0157623l-13.470276 4.561676l-10.582977 9.120728z" fill-rule="nonzero"></path><path fill="#c3a794" d="m338.7021 270.91602l15.412231 1.5539856l0.551239 8.548065l-0.551239 5.437866l-4.954712 5.4400635" fill-rule="nonzero"></path><path fill="#000000" fill-opacity="0.0" d="m378.0971 162.82414l12.312347 -6.842514l23.262451 -5.4724426l12.312347 2.280838l20.524933 5.015747l5.015747 6.8425293l4.1049805 9.577423" fill-rule="nonzero"></path><path stroke="#c3a794" stroke-width="3.0" stroke-linejoin="round" stroke-linecap="butt" d="m378.0971 162.82414l12.312347 -6.842514l23.262451 -5.4724426l12.312347 2.280838l20.524933 5.015747l5.015747 6.8425293l4.1049805 9.577423" fill-rule="nonzero"></path><path fill="#000000" fill-opacity="0.0" d="m312.87665 164.6483l-14.13913 -2.7375336l-9.577423 0l-14.595795 5.0183716l-8.209961 11.858261" fill-rule="nonzero"></path><path stroke="#c3a794" stroke-width="3.0" stroke-linejoin="round" stroke-linecap="butt" d="m312.87665 164.6483l-14.13913 -2.7375336l-9.577423 0l-14.595795 5.0183716l-8.209961 11.858261" fill-rule="nonzero"></path><path fill="#e5b8b6" d="m302.15878 327.4895l6.968628 -6.8425293l13.935028 2.2808533l15.097961 3.648285l4.647217 -1.8241272l6.9664 1.8241272l10.840576 0.9133911l18.582275 -5.4724426l9.290009 -4.561676l15.87323 2.7375183l5.420288 0.9107666l5.032654 0l-19.357544 -7.7532654l-12.386688 -0.45669556l-15.87323 4.561676l-17.42157 -1.8241577l-6.5809937 5.015747l-5.8056946 -3.1915894l-10.840576 0.45669556l-13.549622 -1.8241577z" fill-rule="nonzero"></path><path stroke="#dbb0ae" stroke-width="1.0" stroke-linejoin="round" stroke-linecap="butt" d="m302.15878 327.4895l6.968628 -6.8425293l13.935028 2.2808533l15.097961 3.648285l4.647217 -1.8241272l6.9664 1.8241272l10.840576 0.9133911l18.582275 -5.4724426l9.290009 -4.561676l15.87323 2.7375183l5.420288 0.9107666l5.032654 0l-19.357544 -7.7532654l-12.386688 -0.45669556l-15.87323 4.561676l-17.42157 -1.8241577l-6.5809937 5.015747l-5.8056946 -3.1915894l-10.840576 0.45669556l-13.549622 -1.8241577z" fill-rule="nonzero"></path><path fill="#dbb0ae" d="m306.49344 326.10367l1.0863037 5.015747l10.145813 3.1942444l19.563904 2.2808228l14.8559265 0.45407104l16.304993 -4.1049805l16.66571 -4.5590515l25.362427 -9.123352l-26.811523 -3.1916199l-9.420197 5.015747l-15.9422 4.561676l-13.767517 -1.8241272l-6.15921 0.45669556l-26.088013 -7.753296z" fill-rule="nonzero"></path><path fill="#c3a794" d="m377.18372 164.1916l1.8241577 9.120728l6.3858337 5.929138l-5.015747 -6.8398895z" fill-rule="nonzero"></path><path stroke="#c3a794" stroke-width="1.0" stroke-linejoin="round" stroke-linecap="butt" d="m377.18372 164.1916l1.8241577 9.120728l6.3858337 5.929138l-5.015747 -6.8398895z" fill-rule="nonzero"></path><path fill="#c3a794" d="m312.41995 164.6483l2.2808228 6.383194" fill-rule="nonzero"></path><path stroke="#c3a794" stroke-width="1.0" stroke-linejoin="round" stroke-linecap="butt" d="m312.41995 164.6483l2.2808228 6.383194" fill-rule="nonzero"></path><path fill="#c3a794" d="m283.68765 336.13385l10.490814 -17.330688l10.944885 -13.682434l8.209991 -7.7532654l6.385803 -25.997375l-6.385803 28.278198l-19.611572 19.611572z" fill-rule="nonzero"></path><path stroke="#c3a794" stroke-width="1.0" stroke-linejoin="round" stroke-linecap="butt" d="m283.68765 336.13385l10.490814 -17.330688l10.944885 -13.682434l8.209991 -7.7532654l6.385803 -25.997375l-6.385803 28.278198l-19.611572 19.611572z" fill-rule="nonzero"></path><path fill="#f9d6be" d="m360.7638 256.77692l30.102356 25.997375l28.278198 8.209961l-28.734894 -7.753296z" fill-rule="nonzero"></path><path fill="#f9d6be" d="m389.95538 174.225c9.425629 -0.45625305 49.712585 -2.6614075 56.553802 -2.7375336c6.841217 -0.07611084 -6.004822 -3.1924744 -15.506561 2.280838c-9.5017395 5.4733276 -34.58661 25.465881 -41.503937 30.559067" fill-rule="nonzero"></path><path fill="#f9d6be" d="m389.95538 174.225c9.425629 -0.45625305 49.712585 -2.6614075 56.553802 -2.7375336c6.841217 -0.07611084 -6.004822 -3.1924744 -15.506561 2.280838c-9.5017395 5.4733276 -34.58661 25.465881 -41.503937 30.559067" fill-rule="nonzero"></path><path fill="#f9d6be" d="m389.95538 174.225c9.425629 -0.45625305 49.712585 -2.6614075 56.553802 -2.7375336c6.841217 -0.07611084 -6.004822 -3.1924744 -15.506561 2.280838c-9.5017395 5.4733276 -34.58661 25.465881 -41.503937 30.559067" fill-rule="nonzero"></path><path fill="#f9d6be" d="m389.95538 174.225c9.425629 -0.45625305 49.712585 -2.6614075 56.553802 -2.7375336c6.841217 -0.07611084 -6.004822 -3.1924744 -15.506561 2.280838c-9.5017395 5.4733276 -34.58661 25.465881 -41.503937 30.559067" fill-rule="nonzero"></path><path fill="#f9d6be" d="m389.95538 174.225c9.425629 -0.45625305 49.712585 -2.6614075 56.553802 -2.7375336c6.841217 -0.07611084 -6.004822 -3.1924744 -15.506561 2.280838c-9.5017395 5.4733276 -34.58661 25.465881 -41.503937 30.559067" fill-rule="nonzero"></path><path fill="#f9d6be" d="m389.95538 174.225c9.425629 -0.45625305 49.712585 -2.6614075 56.553802 -2.7375336c6.841217 -0.07611084 -6.004822 -3.1924744 -15.506561 2.280838c-9.5017395 5.4733276 -34.58661 25.465881 -41.503937 30.559067" fill-rule="nonzero"></path><path fill="#c3a794" d="m373.99124 263.16403c-0.68414307 0.07611084 16.03894 17.78653 25.54068 25.083984c9.50177 7.2974854 30.785675 18.776917 31.469818 18.700806c0.6841736 -0.07611084 -17.863068 -11.860016 -27.364807 -19.15747c-9.50177 -7.2974854 -28.961517 -24.70343 -29.64569 -24.62732z" fill-rule="nonzero"></path><path fill="#000000" fill-opacity="0.0" d="m324.7349 166.92914l4.559082 42.871384l-7.2966003 31.926514l0 13.682419l13.682404 6.3858337" fill-rule="nonzero"></path><path stroke="#c3a794" stroke-width="3.0" stroke-linejoin="round" stroke-linecap="butt" d="m324.7349 166.92914l4.559082 42.871384l-7.2966003 31.926514l0 13.682419l13.682404 6.3858337" fill-rule="nonzero"></path></g></svg>

